<?xml version="1.0" encoding="UTF-8"?>
<svg id="Calque_1" data-name="Calque 1" xmlns="http://www.w3.org/2000/svg" viewBox="0 0 10280 7592">
  <defs>
    <style>
      .cls-1, .cls-2 {
        fill: #252525;
      }

      .cls-3 {
        fill: none;
        stroke: #332c2b;
        stroke-miterlimit: 22.93;
        stroke-width: 1.78px;
      }

      .cls-4 {
        fill: #e55934;
      }

      .cls-4, .cls-5, .cls-6, .cls-2 {
        fill-rule: evenodd;
      }

      .cls-5 {
        fill: #fff;
      }

      .cls-6 {
        fill: #fb9c75;
      }
    </style>
  </defs>
  <path class="cls-2" d="M4867.88,1654.48c-17.85,16.24-53.57,47.62-80.09,90.92-26.52,43.29-43.84,98.49-39.73,185.06,4.08,86.56,29.59,204.5,55.08,322.42,17.31,13.39,34.22,28.77,51.09,44.14,1.43,27.19,2.89,53.88,4.38,79.97,19.86-33.76,39.73-67.52,61.57-122.82,21.84-55.29,45.65-132.14,53.76-219.81,8.12-87.66.55-186.16-3.24-235.39q-3.79-49.24,31.39-30.31c35.17,18.95,105.53,56.83,243.52,94.16,138,37.35,343.63,74.15,492.44,80.64,148.82,6.5,240.81-17.32,286.81-29.23q46-11.91,51.96,37.88c5.94,49.79,17.85,149.36,40.38,232.32,22.52,82.98,55.65,149.34,88.8,215.7,3.83-31.11,7.59-62.85,11.28-95.07,26.2-24.29,52.42-48.55,82.22-61.77,9.75-23.77,19.48-47.52,29.99-74.93,7.69-20.04,15.78-42.05,24.62-67.43,20.88-60.08,45.76-139.08,47.38-212.67,1.63-73.6-20.01-141.79-30.84-175.88-7.13-22.49-9.56-30.14-5.12-40.98,2.31-5.58,6.43-12.03,12.69-21.79,18.4-28.68,55.2-86.04,67.64-152.59,12.46-66.56.55-142.33-54.65-213.23-55.2-70.88-153.69-136.9-265.17-168.84-111.48-31.92-235.92-29.76-377.71,7.04-141.77,36.8-300.87,108.24-380.42,143.96q-79.56,35.71-83.34,16.23c-3.79-19.48-11.36-58.44-48.16-66.56-36.79-8.12-102.81,14.61-168.84,59.52-66.01,44.92-132.04,112.03-162.33,175.88-30.31,63.87-24.91,124.46-22.2,155.3,2.71,30.84,2.71,31.93-15.14,48.16h0ZM4867.88,1654.48"/>
  <path class="cls-6" d="M5378.88,2098.85c18.87,7.1,12.68,15.75-11.75,24.42-24.44,8.67-67.12,17.32-126.82,32.48-59.72,15.16-136.43,36.82-180.04,45.48-43.62,8.65-54.13,4.32-53.21-4.65.93-8.97,13.29-22.57,42.38-41.76,29.07-19.18,74.84-43.93,114.76-57.22,39.9-13.3,73.93-15.16,112.91-13.3,38.97,1.85,82.91,7.42,101.78,14.55h0ZM5002.08,1768.66q-35.17-18.93-31.39,30.31c3.79,49.24,11.36,147.73,3.24,235.39-8.11,87.66-31.92,164.52-53.76,219.81-21.84,55.3-41.71,89.06-61.59,122.82,6.56,114.86,13.75,218.32,21.99,303.28,2.89,29.86,5.93,57.43,9.11,83.01,20.41,163.77,47.25,245.84,87.47,322.54,28.1,53.63,62.76,104.63,102.19,150.19,25.8,29.77,53.63,57.22,83.05,81.55,74.39,61.51,158.79,103.01,253.19,118.02,94.42,15.02,198.87,3.57,293.27-32.91,94.42-36.48,178.83-97.99,252.49-186.68,73.68-88.68,136.61-204.57,185.26-435.6,1.34-6.39,2.67-12.86,4-19.43,20.68-102.49,38.75-225.86,55.38-360.83-33.15-66.36-66.28-132.72-88.8-215.7-22.52-82.96-34.43-182.54-40.38-232.32q-5.96-49.79-51.96-37.88c-46,11.91-137.98,35.72-286.81,29.23-148.81-6.49-354.44-43.29-492.44-80.64-137.99-37.33-208.34-75.21-243.52-94.16h0ZM5172.86,2243.93c39.46,0,71.45,32,71.45,71.45s-31.99,71.46-71.45,71.46-71.46-32-71.46-71.46,32-71.45,71.46-71.45h0ZM5920.91,2315.38c0,39.46-32.01,71.46-71.47,71.46s-71.44-32-71.44-71.46,31.98-71.45,71.44-71.45,71.47,32,71.47,71.45h0ZM5782,2155.76c-59.7-15.16-102.39-23.81-126.82-32.48-24.44-8.67-30.63-17.32-11.76-24.42,18.87-7.13,62.81-12.69,101.78-14.55,38.97-1.86,73.01,0,112.91,13.3,39.92,13.29,85.69,38.05,114.77,57.22,29.09,19.19,41.45,32.79,42.38,41.76.94,8.97-9.58,13.31-53.21,4.65-43.61-8.67-120.33-30.32-180.04-45.48h0ZM5782,2155.76"/>
  <path class="cls-6" d="M4880.58,2680.27c-8.24-84.96-15.43-188.42-21.99-303.28-1.47-26.09-2.93-52.78-4.36-79.97-16.88-15.38-33.79-30.75-51.09-44.14-18.7-14.48-37.9-26.66-58.04-34-38.75-14.13-81.06-10.36-112.57,8.45-31.52,18.82-52.22,52.68-57.41,99.24-5.15,46.57,5.19,105.82,26.36,172.13,21.16,66.32,53.14,139.7,85.12,186.72,31.98,47.03,63.97,67.73,90.29,80.89,26.35,13.17,47.05,18.83,64.9,17.06,17.85-1.76,32.89-10.93,47.9-20.1-3.18-25.58-6.22-53.15-9.11-83.01h0ZM4880.58,2680.27"/>
  <path class="cls-6" d="M6205.98,2400.14c-16.64,134.97-34.7,258.34-55.38,360.83,27.8,7.27,55.61,14.54,85.14,13.54,29.55-.97,60.86-10.23,95.34-40.82,34.5-30.58,72.2-82.51,102.07-139.78,29.88-57.25,51.93-119.84,59.03-171.07,7.13-51.2-.71-91.04-19.21-121.97-18.49-30.94-47.64-53-78.95-62.97-31.3-9.94-64.72-7.81-94.54,5.4-29.8,13.22-56.02,37.48-82.22,61.77-3.7,32.22-7.45,63.96-11.28,95.07h0ZM6205.98,2400.14"/>
  <path class="cls-2" d="M5961.34,3216.01c-73.66,88.68-158.07,150.19-252.49,186.68-94.4,36.48-198.85,47.93-293.27,32.91-94.4-15.01-178.8-56.51-253.19-118.02-29.42-24.33-57.25-51.78-83.05-81.55.06,7.89.1,15.8.17,23.69,63.09,89.82,126.2,179.63,206.44,241.3,80.24,61.69,177.62,95.22,271.22,101.18,93.6,5.96,183.41-15.69,249.81-43.84,66.42-28.13,109.41-62.77,152.43-97.4.64-81.64,1.28-163.3,1.93-244.94h0ZM5961.34,3216.01"/>
  <path class="cls-5" d="M5806.98,3558.35c-66.41,28.14-156.21,49.8-249.81,43.84-93.59-5.96-190.98-39.49-271.22-101.18-80.25-61.66-143.35-151.47-206.44-241.3,1,147.41,2.02,294.79,3.02,442.19.02,2.43.03,4.85.05,7.27,6.2,15.51,11.66,34.43,21.77,55.46,21.71,45.13,64.92,100.04,125.45,144.28,60.55,44.23,138.47,77.8,230.74,93.38,92.29,15.57,198.96,13.18,284.27-51.03,85.31-64.19,149.27-190.2,187.01-250.74,10.36-16.59,18.75-28.27,25.99-36.41.52-67.71,1.06-135.43,1.59-203.16-43.02,34.62-86,69.27-152.43,97.4h0ZM5806.98,3558.35"/>
  <path class="cls-4" d="M6110.75,3707.45c-11.39,40.75-41.35,117.45-89.89,188.16-48.53,70.71-115.66,135.43-185.17,184.57-69.52,49.13-141.43,82.69-233.71,92.27-92.28,9.59-204.95-4.79-306.83-41.35-101.87-36.55-192.95-95.28-263.59-171.71-70.63-76.44-120.83-170.59-141.13-220.66-1.81-4.44-3.36-8.53-4.7-12.32-219.53,31.68-410.54,73.18-529.62,103.16-179.15,45.13-195.59,64.28-322.77,314.56-127.18,250.29-365.15,731.69-484.14,972.4-38.15,77.18-64.06,129.6-81.67,165.22-1.95-6.16-3.89-12.3-5.85-18.43-93-289.94-214.04-553.44-274.57-685.18q-60.52-131.76-156.25-119.44c-95.74,12.32-287.2,36.92-382.94,47.87-24.32,2.78-42.46,4.67-55.58,10.17-38.57,16.14-33.91,63.34-15.54,255.15,24.62,257.11,73.86,774.08,170.96,1172.08,97.09,397.98,242.07,676.97,387.05,838.36,144.96,161.39,289.94,205.15,426.69,181.9,136.77-23.25,265.34-113.51,407.56-250.28,95.95-92.27,198.14-205.7,302.35-326.01,10.41,396.81,20.82,793.62,31.22,1190.43h3094.41c-72.32-505.2-137.34-1004.7-154.22-1466.46-15.38-420.95,9.25-810.53,42.94-1193,183.34-251.29,366.69-502.59,606.2-829.56,239.52-326.96,535.2-729.62,698.78-1022.16,163.58-292.54,195.02-474.99,182.45-607.11-12.58-132.11-69.21-213.89-322.44-320.86-253.21-106.94-703.04-239.06-1138.71-327.15-321.31-64.96-634.93-105.96-946.52-140.67-4.44,10.84-2.01,18.49,5.12,40.98,10.83,34.09,32.47,102.28,30.84,175.88-1.63,73.6-26.5,152.59-47.38,212.67-8.84,25.38-16.93,47.38-24.62,67.43,452.46,206.31,879.11,398.13,1152.43,504.06,75.09,29.1,138.61,51.72,193.2,69.34-223.26,216.48-446.5,432.95-669.84,593.97-223.34,161.02-446.75,266.57-670.16,372.12-73.8-4.33-147.59-8.68-221.27-12.65-.79,3.66-1.82,7.74-3.09,12.24h0ZM6110.75,3707.45"/>
  <path class="cls-6" d="M5104.35,3764.62c-10.11-21.03-15.57-39.95-21.77-55.46,6.2,15.51,11.66,34.43,21.77,55.46h0ZM5957.82,3664.11c-7.24,8.14-15.63,19.82-25.99,36.41,10.36-16.59,18.75-28.27,25.99-36.41h0ZM5601.98,4172.46c92.27-9.58,164.18-43.14,233.71-92.27,69.51-49.15,136.63-113.86,185.17-184.57,48.54-70.71,78.5-147.41,89.89-188.16,1.26-4.5,2.3-8.58,3.09-12.24,6.52-29.56-1.41-33.7-21.67-36.91-22.77-3.59-61.11-5.99-86.07-9.66-18.11-2.68-29.16-6.02-48.28,15.46.52-67.71,1.06-135.43,1.59-203.16-43.02,34.62-86,69.27-152.43,97.4-66.41,28.14-156.21,49.8-249.81,43.84-93.59-5.96-190.98-39.49-271.22-101.18-80.25-61.66-143.35-151.47-206.44-241.3,1,147.41,2.02,294.79,3.02,442.19.02,2.43.03,4.85.05,7.27-.97-2.4-1.94-4.72-2.96-6.97-6.51-14.29-14.58-25.07-29.48-31.1-32.25-13.02-96.53-3.71-133.47,3.94-33.67,6.96-44.61,12.56-30.93,51.38,1.34,3.79,2.89,7.88,4.7,12.32,20.3,50.07,70.5,144.22,141.13,220.66,70.64,76.43,161.72,135.16,263.59,171.71,101.88,36.56,214.55,50.94,306.83,41.35h0ZM5601.98,4172.46"/>
  <path class="cls-6" d="M3030.86,4458.71c-9.88-142.75-19.75-285.49-95.09-421.77-75.3-136.28-216.07-266.1-317.72-379.49-101.65-113.39-164.21-210.35-208.78-254.92-44.57-44.59-71.17-36.75-80.55-7.04-9.38,29.71-1.57,81.32,26.58,150.93,28.16,69.6,76.64,157.17,100.88,200.97q24.25,43.79-1.55,49.26c-25.8,5.48-77.43,16.43-157.19,3.13-79.76-13.3-187.67-50.84-294.8-114.17-107.13-63.35-213.48-152.49-276.82-193.93-63.35-41.45-83.68-35.2-93.84-14.88-10.17,20.33-10.17,54.75-3.91,78.99,6.25,24.24,18.77,38.32,25.02,45.36q6.27,7.03-9.38.78c-15.63-6.25-46.91-18.77-62.56-13.29-15.63,5.48-15.63,28.94-10.17,50.05,5.49,21.1,16.44,39.88,21.89,49.27,3.67,6.25,4.87,8.34.43,8.56-2.23.12-5.88-.21-11.37-.75-16.41-1.57-49.25-4.7-65.7,5.48-16.41,10.17-16.41,33.62-.77,64.12,15.65,30.49,46.93,68.03,106.35,119.64,59.43,51.61,147.01,117.3,190.02,150.13,43.02,32.84,41.45,32.84,4.7,13.3-36.75-19.55-108.7-58.65-147.8-65.69-39.1-7.04-45.35,17.97-35.19,41.44,10.17,23.46,36.77,45.36,99.31,88.36,62.56,43.02,161.1,107.13,238.51,150.15,77.42,43,133.71,64.9,221.3,86.8,87.59,21.9,206.45,43.79,273.69,59.43,67.26,15.65,82.9,25.03,95.3,41.96,12.39,16.92,21.55,41.39,30.7,65.86,13.12-5.5,31.26-7.39,55.58-10.17,95.74-10.95,287.2-35.55,382.94-47.87h0ZM3030.86,4458.71"/>
  <path class="cls-1" d="M6335.89,3694.3c7.5.44,13.21,6.87,12.77,14.37-.43,7.48-6.87,13.2-14.37,12.77l-110.63-6.48-110.52-6.19c-7.5-.38-13.26-6.77-12.88-14.26.38-7.48,6.76-13.26,14.26-12.88,37.52,2.02,74.25,4.1,110.64,6.2l110.72,6.47ZM5081.15,3688.4c7.45-.76,14.14,4.67,14.9,12.12.75,7.46-4.68,14.14-12.14,14.9l-2.92.3c-7.46.76-14.14-4.67-14.9-12.14-.76-7.45,4.67-14.14,12.14-14.89l2.92-.3ZM4883.82,3712.97c7.43-1.06,14.33,4.12,15.37,11.54,1.07,7.43-4.1,14.32-11.54,15.39-96.92,13.98-188.26,29.88-270.2,45.83-103.16,20.11-191.74,40.36-258.05,57.06-87.16,21.96-134.61,37.47-174.63,76.84-40.92,40.25-76.37,106.84-139.31,230.63-126.43,248.81-362.87,727.12-482.44,968.98l-83.3,168.55c-3.33,6.72-11.48,9.49-18.2,6.17-6.74-3.33-9.5-11.48-6.17-18.22l83.3-168.53c119.49-241.7,355.8-719.72,482.56-969.19,64.28-126.44,100.65-194.61,144.5-237.77,44.77-44.03,95.13-60.69,187.1-83.86,66.48-16.74,155.48-37.09,259.51-57.36,82.43-16.04,174.2-32.02,271.5-46.06h0ZM4883.82,3712.97"/>
  <path class="cls-1" d="M3697.9,6183.34c1.49,7.35-3.25,14.52-10.6,16.01-7.34,1.49-14.52-3.25-16.01-10.6-32.41-157.83-64.82-315.7-100.9-470.94-35.92-154.57-75.32-305.82-121.67-450.32-46.33-144.45-99.72-282.49-149.08-400.85-49.57-118.88-94.76-217.27-124.89-282.84q-56.32-122.67-142.2-111.61l-.96.12c-96.73,12.42-288.63,37.1-382.14,47.79l-3.03.34c-39.82,4.53-59.87,6.82-66.12,30.2-8.15,30.41-2.19,92.68,9.79,217.91l.54,5.58c24.68,257.93,73.86,771.34,170.31,1166.66,45.83,187.84,102.4,349.08,164.58,483.77,68.63,148.67,144.05,264.84,219.37,348.68,71.02,79.04,141.75,129.18,211.28,156.63,68.99,27.24,137.04,32.19,203.08,20.97,66.44-11.3,131.14-39.03,196.68-80.67,66.25-42.08,133.27-98.28,203.69-166.01,47.69-45.83,97.06-97.09,147.5-151.9,50.64-55.02,102.14-113.32,154.01-173.2,4.89-5.67,13.49-6.3,19.16-1.38,5.67,4.89,6.28,13.49,1.38,19.16-52.31,60.4-104.06,118.99-154.54,173.82-50.67,55.05-100.41,106.67-148.67,153.08-71.77,69.02-140.19,126.36-207.96,169.41-68.46,43.49-136.45,72.54-206.78,84.49-70.7,12.01-143.55,6.71-217.45-22.46-73.39-28.95-147.62-81.41-221.59-163.74-77.05-85.78-154.01-204.22-223.85-355.5-62.84-136.1-119.98-298.99-166.29-488.78-96.88-397.07-146.18-911.87-170.93-1170.5l-.55-5.58c-12.3-128.57-18.41-192.51-9.05-227.5,11.06-41.24,37.29-44.25,89.43-50.18l2.92-.35c97.27-11.11,286.38-35.43,381.74-47.68l1.25-.17q105.38-13.54,170.08,127.3c30.4,66.16,76,165.43,125.32,283.71,49.53,118.79,103.18,257.49,149.83,402.97,46.65,145.43,86.25,297.38,122.3,452.56,35.89,154.51,68.46,313.07,101,471.59h0ZM3697.9,6183.34"/>
  <path class="cls-1" d="M4221.35,4996.27c-.18-7.5,5.77-13.72,13.25-13.9,7.5-.18,13.71,5.76,13.9,13.25l67.7,2582.44c.18,7.48-5.76,13.72-13.25,13.88-7.5.18-13.72-5.75-13.9-13.24l-67.7-2582.42ZM4221.35,4996.27"/>
  <path class="cls-1" d="M7303.46,4582.32c.67-7.45,7.28-12.95,14.74-12.29,7.47.67,12.97,7.28,12.3,14.74l-.02.18c-46.97,491.5-93.96,982.97-74.1,1526.48,8.43,230.32,28.89,470.36,56.28,715.93,27.36,245.4,61.69,496.52,97.84,749.09,1.07,7.44-4.11,14.32-11.54,15.39-7.43,1.05-14.32-4.12-15.39-11.56-36.14-252.6-70.5-503.88-97.94-749.95-27.42-245.9-47.91-486.53-56.37-717.94-19.92-545.21,27.15-1037.59,74.2-1529.96v-.12ZM7303.46,4582.32"/>
  <path class="cls-1" d="M4302.63,7592c-7.53,0-13.64-6.1-13.64-13.63s6.11-13.62,13.64-13.62h3094.41c7.51,0,13.63,6.1,13.63,13.62s-6.11,13.63-13.63,13.63h-3094.41ZM4302.63,7592"/>
  <path class="cls-1" d="M7296.72,4926.9c-4.39,6.04-12.89,7.38-18.95,2.98-6.04-4.4-7.37-12.89-2.98-18.94l282.04-386.46c98.69-135.09,204.42-279.68,324.17-443.16l10.11-13.81c237.48-324.17,526.98-719.35,687.77-1006.9,81.16-145.15,129.53-262.89,156-360.64,26.27-97,30.95-174.05,24.78-238.59-6.01-63.12-22.43-114.14-67.35-161.84-46.06-48.92-122.11-95.12-246.83-147.79-128.51-54.27-308.31-115.19-511.45-173.55-195.43-56.14-411.94-109.8-624.66-152.81-159.99-32.34-318.54-58.79-476.16-81.52-157.49-22.7-313.63-41.62-469.19-58.94-7.45-.82-12.83-7.54-12.01-15.01.82-7.45,7.54-12.83,14.99-12.01,156.03,17.38,312.52,36.33,470.04,59.03,157.4,22.7,316.34,49.24,477.65,81.84,214.12,43.29,431.33,97.09,626.78,153.25,203.86,58.56,384.74,119.87,514.55,174.71,128.48,54.26,207.4,102.46,256.07,154.18,49.85,52.95,68.04,108.93,74.6,177.9,6.42,67.56,1.66,147.82-25.53,248.19-26.99,99.63-76.17,219.43-158.57,366.8-161.77,289.32-451.71,685.1-689.57,1009.78l-10.11,13.81c-119.75,163.48-225.48,308.05-324.17,443.16l-282.03,386.35ZM7296.72,4926.9"/>
  <path class="cls-1" d="M6323.83,2180.71c-6.81-3.12-9.82-11.18-6.7-17.99,3.12-6.81,11.18-9.82,17.99-6.7,224.98,102.58,444.18,201.85,643.23,289.57,197.54,87.05,372.43,161.46,508.45,214.16,326.54,126.57,432.33,129.68,538.09,132.78,7.48.2,13.4,6.45,13.2,13.94-.2,7.49-6.45,13.4-13.95,13.2-108.12-3.18-216.28-6.37-547.16-134.59-137.28-53.21-312.4-127.7-509.59-214.61-195.71-86.25-416.09-186.06-643.57-289.77h0ZM6323.83,2180.71"/>
  <path class="cls-1" d="M7665.95,2731.76c5.54-5.05,14.11-4.68,19.16.85,4.99,5.45,4.68,13.88-.64,18.96-223.52,216.77-447.07,433.53-671.29,595.18-224.39,161.77-448.3,267.57-672.2,373.35-1.06.51-2.17.87-3.3,1.08-5.83,1.12-11.94-1.69-14.72-7.25-2.8-5.61-1.35-12.23,3.13-16.21.96-.87,2.07-1.61,3.3-2.19,222.85-105.29,445.73-210.61,667.93-370.79,222.38-160.34,445.31-376.48,668.21-592.62l.41-.35ZM7665.95,2731.76"/>
  <path class="cls-1" d="M3044.43,4457.81c.48,7.48-5.19,13.97-12.67,14.48-7.48.48-13.98-5.19-14.48-12.68-4.91-71.06-9.84-142.15-22.78-211.76-12.85-69.18-33.74-137.59-70.65-204.36-55.84-101.06-148.96-199.3-234.6-289.65-28.2-29.74-55.59-58.65-81.31-87.33-55.49-61.89-99.24-118.69-134.8-164.87-29.61-38.44-53.5-69.48-73.49-89.47l-.64-.68c-14.55-14.45-26.52-22.49-36.04-25.5-3.88-1.22-7.07-1.51-9.58-.99-2.01.42-3.83,1.48-5.43,3.08-2.59,2.59-4.68,6.55-6.27,11.53-4.12,13.09-4.27,31.8-.06,55.67,4.24,24.12,12.89,52.97,26.27,86.07,13.96,34.44,32.92,73.34,51.38,109.03,19.24,37.15,36.95,69.16,48.75,90.5q33.12,59.8-10.6,69.11l-.24.04c-26.72,5.67-79.94,16.85-161.99,3.2-42.81-7.15-93.55-21.12-147.9-42.17-48.69-18.86-100.29-43.38-151.59-73.72-68.03-40.22-135.29-90.39-191.69-132.46-33.1-24.7-62.48-46.61-85.66-61.77-29.56-19.34-48.37-27.51-60.43-28.42-7.25-.55-11.19,2.93-13.84,8.23-3.91,7.83-6,18.76-6.57,30.44-.67,13.52.72,27.61,3.68,39.07l.12.52c2.69,10.25,6.72,18.41,10.75,24.78,3.98,6.33,8.31,11.18,11.18,14.4,38.32,43.12,43.61,49.07.15,32.25-2.3-.27-5.02-1.28-8.09-3.18l-16.62-6.61c-14.11-5.63-42.24-16.88-53.09-13.09-1.85.65-3.04,3.1-3.72,6.46l-.08.38c-1.38,7.42-.18,17.36,2.31,26.98,4.97,19.2,15.33,36.93,20.5,45.82q18.84,32.25-23.98,28.19c-7.88-.75-19.74-1.87-31.23-1.61-10.27.23-20.26,1.54-26.05,5.13-3.92,2.42-5.9,6.87-5.96,12.89-.1,8.78,3.3,20.18,10.15,33.5,7.31,14.28,18.45,30.35,34.88,49.15,16.77,19.14,39.02,41,68.26,66.39,51.91,45.09,125.03,100.68,171.16,135.78l18.23,13.84c24.06,18.37,35.89,28.4,37.24,34,6.51,27.43-11.39,21.17-47.19,2.13l-5.9-3.21c-37.44-19.95-102.92-54.88-137.91-61.16-8.84-1.58-14.97-1.23-18.87.45-1.29.55-2.28,1.34-2.97,2.25-.73.97-1.23,2.2-1.48,3.59-.8,4.53.36,10.4,2.96,16.43,4.23,9.76,12.36,19.63,26.5,32.01,15.25,13.37,37.2,29.33,68.08,50.55,34.43,23.67,79.94,53.86,126.91,83.42,37.74,23.77,76.29,47.05,110.48,66.04,38.09,21.15,71.01,37.14,105.18,50.51,34.05,13.34,69.52,24.12,112.82,34.95,52.46,13.11,115.13,26.04,171.45,37.65,39.29,8.09,75.59,15.59,102.02,21.73l.56.15c34.27,7.98,55.66,14.48,70.27,21.24,16.44,7.6,24.86,15.54,32.34,25.77,13.44,18.36,22.95,43.72,32.42,69.08,2.65,7.09-.93,14.9-7.95,17.52-7.02,2.61-14.84-.96-17.46-7.98-8.8-23.57-17.62-47.09-28.94-62.54-4.9-6.69-10.52-11.94-21.81-17.15-12.96-5.99-32.74-11.95-65.05-19.46l-.56-.12c-28.04-6.52-63.21-13.78-101.26-21.62-57.25-11.8-120.92-24.94-172.64-37.86-44.28-11.07-80.78-22.19-116.12-36.02-35.2-13.78-69.16-30.26-108.48-52.11-34.86-19.37-73.8-42.87-111.75-66.77-47.08-29.64-92.99-60.08-127.87-84.06-31.65-21.76-54.32-38.29-70.53-52.48-17.32-15.16-27.6-28-33.53-41.68-4.64-10.72-6.54-22.05-4.76-31.97,1-5.6,3.12-10.78,6.47-15.19,3.39-4.5,8-8.18,13.93-10.77,8.59-3.71,19.95-4.87,34.41-2.25,16.16,2.9,37.21,10.77,59.06,20.45-39.22-30.26-83-64.82-117.27-94.59-30.17-26.18-53.28-48.95-70.92-69.07-17.94-20.51-30.29-38.46-38.61-54.67-8.86-17.29-13.27-33.01-13.12-46.16.2-15.73,6.43-28,18.85-35.69,10.6-6.55,25.3-8.82,39.66-9.15,8.82-.2,17.52.29,24.86.88-5.54-10.46-11.88-24.21-15.8-39.32-3.39-13.12-4.89-27.31-2.66-39.02l.1-.57c2.54-12.53,9.13-22.4,21.4-26.68,12.38-4.34,29.88-.99,45.59,3.84-2.72-5.81-5.22-12.42-7.18-19.9l-.17-.56c-3.61-14.01-5.34-31.02-4.53-47.16.75-15.11,3.73-29.85,9.46-41.3,7.51-15.01,18.84-24.83,40.12-23.23,16.47,1.25,39.53,10.69,73.29,32.79,23.93,15.65,53.59,37.77,87.04,62.73,55.97,41.75,122.72,91.54,189.26,130.88,50.1,29.62,100.3,53.51,147.55,71.8,52.46,20.3,101.37,33.79,142.57,40.66,76.34,12.71,126.03,2.51,151.26-2.84l1.7-.37c7.01-1.52,6.47-2.52-8.32-29.23-12.43-22.46-31.08-56.14-49.19-91.13-18.86-36.45-38.23-76.17-52.43-111.28-14.16-35.07-23.34-65.77-27.89-91.61-4.97-28.22-4.52-51.29.92-68.52,2.88-9.11,7.19-16.83,12.97-22.59,5.27-5.28,11.71-8.9,19.25-10.43,7.04-1.44,14.81-1,23.19,1.64,13.38,4.23,29.1,14.43,47.02,32.21l.73.69c20.83,20.83,45.36,52.67,75.74,92.12,35.39,45.94,78.88,102.43,133.53,163.38,24.59,27.42,52.28,56.64,80.76,86.69,86.86,91.63,181.26,191.23,238.77,295.29,38.41,69.51,60.14,140.64,73.51,212.57,13.29,71.48,18.27,143.18,23.22,214.85h0ZM1830.83,4064.51c-.04-.27-.19-.52-.43-.76,1.95,7.51,2.87,11.1.43.76h0ZM1830.83,4064.51"/>
  <path class="cls-1" d="M2448.55,3865.14c-1.95-7.1,2.13-14.52,9.23-16.62,7.19-2.15,14.78,1.95,16.93,9.15l.18.67c16.93,67.67,33.85,135.34,64.58,181.82,30.35,45.91,75.94,73.27,121.5,100.61,6.48,3.86,8.56,12.21,4.71,18.64-3.85,6.44-12.2,8.53-18.63,4.68-48.28-28.97-96.53-57.92-130.26-108.93-33.32-50.39-50.8-120.2-68.25-190.03h0ZM2448.55,3865.14"/>
  <path class="cls-1" d="M1585.05,3707.33c-5.96-4.56-7.11-13.09-2.57-19.05,4.56-5.96,13.09-7.1,19.05-2.55l.17.12c86.22,64.41,172.44,128.88,255.83,183.78,41.64,27.42,83.41,53.01,125.23,77.66,41.88,24.7,83.12,48.05,124.32,71.36,6.52,3.7,8.81,12,5.11,18.52-3.7,6.52-12,8.8-18.52,5.11-41.66-23.57-83.35-47.17-124.75-71.59-41.45-24.44-83.41-50.15-126.29-78.39-85.43-56.26-171.33-120.47-257.2-184.65l-.38-.32ZM1585.05,3707.33"/>
  <path class="cls-1" d="M1711.72,3637.48c-5.83-4.76-6.68-13.34-1.92-19.16,4.76-5.81,13.35-6.68,19.16-1.9,25.76,21.08,51.55,42.17,78.71,63.32l.79.66c26.78,20.83,55.22,41.94,86.89,63.58,31.93,21.8,66.92,43.98,103.42,66.3,36.27,22.17,74.75,44.97,113.21,67.72,6.46,3.82,8.61,12.16,4.79,18.63-3.82,6.46-12.16,8.61-18.63,4.79-38.14-22.58-76.32-45.18-113.53-67.94-37.01-22.63-72.43-45.07-104.6-67.03-31.78-21.72-60.74-43.23-88.23-64.6l-.82-.61c-27.57-21.46-53.42-42.61-79.24-63.75h0ZM1711.72,3637.48"/>
  <path class="cls-1" d="M1926.42,4104.06c-6.96-2.79-10.34-10.71-7.56-17.67,2.78-6.95,10.71-10.34,17.66-7.56l93.83,37.54c6.97,2.78,10.36,10.71,7.58,17.67-2.79,6.95-10.72,10.34-17.67,7.55l-93.84-37.54ZM1926.42,4104.06"/>
  <path class="cls-1" d="M7348.65,4438.42c-1.96,7.23-9.43,11.48-16.65,9.52-7.22-1.96-11.5-9.43-9.53-16.65l24.68-90.46c1.96-7.22,9.43-11.48,16.65-9.52,7.22,1.96,11.48,9.43,9.52,16.65l-24.66,90.46ZM7348.65,4438.42"/>
  <path class="cls-1" d="M4840.66,2297.73c-.38-7.5,5.4-13.88,12.88-14.27,7.48-.38,13.88,5.38,14.27,12.88,3.82,72.84,7.86,142.45,12.25,207.38,4.38,64.84,9.05,123.89,14.02,175.27,10.64,109.62,23.09,188.24,38.59,250.39l.11.5c15.34,61.28,33.71,106.38,56.38,149.66,23.05,43.98,50.56,86.14,81.49,124.84,30.34,37.94,64.12,72.7,100.41,102.7,37,30.58,76.55,56.13,118.6,75.71,40.45,18.85,83.15,32.24,128.07,39.38,46.06,7.32,94.71,8.17,143.4,2.71,48.46-5.43,96.9-17.12,142.84-34.87,46.03-17.78,89.7-41.74,130.88-72.06,41.26-30.4,80-67.2,116.07-110.63,36.07-43.41,69.57-93.61,100.04-161.34,30.66-68.09,58.26-153.92,82.34-268.36,13.52-64.16,25.94-137.48,37.59-217.36,11.65-79.93,22.51-166.36,32.86-256.76.85-7.45,7.6-12.82,15.05-11.97,7.47.85,12.84,7.6,11.98,15.05-10.39,90.63-21.27,177.31-32.97,257.51-11.69,80.23-24.22,154.1-37.91,219.06-24.55,116.59-52.75,204.25-84.15,274-31.55,70.12-66.4,122.26-103.98,167.5-37.57,45.25-77.92,83.57-120.86,115.22-43.02,31.69-88.79,56.78-137.16,75.45-48.21,18.63-98.96,30.9-149.65,36.57-50.98,5.71-102.06,4.81-150.65-2.92-47.66-7.59-92.76-21.68-135.28-41.5-44.14-20.57-85.64-47.37-124.46-79.45-37.47-30.99-72.55-67.12-104.23-106.74-32.09-40.14-60.55-83.79-84.36-129.21-23.66-45.15-42.81-92.06-58.7-155.58l-.15-.55c-15.77-63.18-28.4-143.05-39.22-254.43-5.12-52.84-9.81-112.04-14.14-176.03-4.32-63.9-8.39-133.8-12.25-207.79h0ZM4840.66,2297.73"/>
  <path class="cls-1" d="M4863.4,2286.98c5.55,5.05,5.95,13.65.9,19.2-5.05,5.55-13.66,5.96-19.2.9-17.4-15.83-34.82-31.68-52.33-45.03-17.05-13.02-34.4-23.87-52.29-30.4-17.34-6.31-35.51-8.65-52.86-7.36-17.48,1.29-34.09,6.33-48.13,14.71-13.98,8.33-25.53,20.12-34.17,35.02-8.6,14.89-14.34,33-16.68,54.04-2.37,21.36-1.23,45.88,2.87,72.79,4.44,29.02,12.29,60.54,22.88,93.76,10.81,33.85,24.52,69.63,39.58,102.7,13.9,30.48,28.91,58.55,43.85,80.5,15.18,22.32,30.31,38.37,44.71,50.32,14.17,11.78,27.93,19.77,40.42,26l1.02.56c11.85,5.85,22.43,10.07,32.01,12.6,9.14,2.42,17.21,3.27,24.48,2.56,14.72-1.44,28.45-9.82,42.15-18.18,6.4-3.91,14.77-1.89,18.68,4.52,3.91,6.4,1.88,14.77-4.52,18.69-16.33,9.96-32.69,19.94-53.66,22-10.57,1.05-21.81-.05-34.05-3.3-11.23-2.97-23.52-7.83-37.17-14.6l-1.05-.47c-13.84-6.92-29.26-15.89-45.65-29.52-16.15-13.41-33.03-31.26-49.82-55.96-15.85-23.31-31.63-52.72-46.09-84.44-15.5-34-29.61-70.86-40.75-105.8-11.12-34.89-19.34-67.81-23.95-97.9-4.44-29.08-5.61-55.91-2.97-79.82,2.77-24.88,9.7-46.56,20.18-64.69,10.98-18.95,25.79-34,43.75-44.71,17.75-10.6,38.46-16.93,60.05-18.54,21.03-1.58,43.08,1.29,64.14,8.96,20.85,7.6,40.49,19.83,59.52,34.34,18.58,14.19,36.38,30.37,54.15,46.53h0ZM4863.4,2286.98"/>
  <path class="cls-1" d="M4647.39,2320.78c-7.53,0-13.64-6.11-13.64-13.62s5.76-13.27,12.97-13.61c19.77-2.63,39.62-5.06,64.7,3.52,13.38,4.57,27.93,12.32,42.07,23.4,12.23,9.59,24.27,21.84,35.1,36.91,11.31,15.75,21.1,34.29,30.09,54.21,8.68,19.2,16.88,40.3,25.04,61.39,2.71,6.98-.77,14.85-7.75,17.56-7,2.69-14.86-.77-17.56-7.77-7.88-20.35-15.8-40.71-24.52-59.99-8.39-18.58-17.32-35.61-27.34-49.54-9.15-12.74-19.42-23.16-29.88-31.37-11.63-9.12-23.38-15.41-33.99-19.04-19.16-6.57-35.81-4.55-52.37-2.35-.96.2-1.93.32-2.93.32h0ZM4647.39,2320.78"/>
  <path class="cls-1" d="M4773.83,2352.21c7.25-2.05,14.78,2.14,16.83,9.37,2.05,7.22-2.14,14.75-9.37,16.8l-.53.15c-23.83,7.91-47.52,15.86-60.65,26.72-11.98,9.91-16.35,24.54-20.7,39.16-2.03,7.3-9.58,11.48-16.8,9.43-7.23-2.04-11.42-9.58-9.37-16.8l.06-.17c5.55-18.7,11.1-37.39,29.47-52.57,16.84-13.93,43.05-22.75,69.42-31.51l1.63-.58ZM4773.83,2352.21"/>
  <path class="cls-1" d="M6226.46,2315.02c-5.49,5.08-14.08,4.75-19.14-.75-5.08-5.49-4.76-14.08.75-19.16,13.49-12.5,26.99-25,40.5-35.72,14.38-11.41,29.36-21.41,45.45-28.54,16.43-7.27,33.94-11.51,51.67-12.52,17.5-.99,35.25,1.19,52.45,6.65,17.56,5.58,34.46,14.6,49.42,26.52,14.42,11.5,27.16,25.77,37.09,42.4,10.1,16.89,17.3,36.19,20.95,58.13,3.6,21.53,3.82,45.68.06,72.69-3.62,26.08-11.02,55.09-21.29,84.87-10.28,29.96-23.69,60.92-39.19,90.61-15.28,29.32-32.65,57.33-50.61,81.92-17.98,24.62-36.62,45.89-54.48,61.74-18.57,16.47-36.36,27.23-53.53,34.01-17.37,6.86-34.11,9.67-50.39,10.22-15.83.52-31.13-1.14-46.09-3.89-14.64-2.7-28.77-6.39-42.87-10.08-7.27-1.87-11.62-9.29-9.75-16.55,1.87-7.25,9.29-11.62,16.54-9.73,13.67,3.56,27.39,7.16,40.97,9.66,13.25,2.43,26.66,3.91,40.34,3.45,13.28-.44,26.96-2.75,41.24-8.39,14.51-5.74,29.62-14.92,45.54-29.03,16.46-14.58,33.76-34.37,50.55-57.38,17.15-23.48,33.79-50.33,48.5-78.51,14.67-28.16,27.51-57.83,37.51-86.88,9.72-27.96,16.67-55.23,20.08-79.77,3.36-24.21,3.21-45.6.06-64.49-3.1-18.51-9.09-34.64-17.46-48.66-8.2-13.72-18.75-25.53-30.7-35.07-12.46-9.91-26.37-17.38-40.69-21.93-13.93-4.43-28.4-6.17-42.74-5.37-14.4.82-28.71,4.29-42.23,10.28-13.7,6.07-26.76,14.84-39.48,24.92-13.59,10.78-26.32,22.57-39.02,34.34h0ZM6226.46,2315.02"/>
  <path class="cls-1" d="M6261.8,2498.95c-2.34,7.1-10.02,10.96-17.12,8.62-7.12-2.35-10.98-10.02-8.62-17.14,14.52-44.42,29.09-88.8,50.93-118.95,10.25-14.14,22-25,34-33.21,14.68-10.02,29.85-16.13,43.32-19.62l.61-.14c24.3-6.19,42.43-3.92,60.54-1.67l.47.06c7.43,1.11,12.56,8.04,11.45,15.48-1.11,7.43-8.04,12.56-15.48,11.45-15.62-1.95-31.27-3.85-50.3.97l-.47.12c-10.78,2.78-22.96,7.71-34.79,15.8-9.61,6.58-19.04,15.3-27.31,26.7-19.34,26.68-33.24,69.03-47.12,111.36l-.09.15ZM6261.8,2498.95"/>
  <path class="cls-1" d="M6284.4,2405.39c-6.96-2.77-10.37-10.66-7.62-17.62,2.77-6.95,10.66-10.36,17.62-7.6,8.25,3.27,16.54,6.56,23.87,9.87,8.18,3.68,16.15,7.74,23.63,12.48,7.43,4.73,14.46,10.19,21.24,16.02,6.6,5.64,12.74,11.43,18.86,17.2,5.46,5.14,5.72,13.75.58,19.21-5.14,5.47-13.75,5.72-19.2.58-5.96-5.61-11.94-11.27-17.88-16.35-5.73-4.91-11.74-9.58-18.17-13.66-6.37-4.04-13.2-7.53-20.24-10.69-7.89-3.56-15.3-6.51-22.69-9.43h0ZM6284.4,2405.39"/>
  <path class="cls-1" d="M5065.78,3236.07c-.03-7.48,6.02-13.59,13.5-13.62,7.5-.01,13.61,6.02,13.62,13.52l3.25,473.14c.02,7.5-6.04,13.61-13.52,13.62-7.5.03-13.61-6.02-13.62-13.5l-3.24-473.16ZM5065.78,3236.07"/>
  <path class="cls-1" d="M5947.77,3215.9c.06-7.48,6.19-13.52,13.68-13.46,7.48.05,13.52,6.17,13.46,13.67l-3.53,448.1c-.06,7.5-6.19,13.52-13.67,13.47-7.5-.06-13.52-6.19-13.47-13.69l3.53-448.1ZM5947.77,3215.9"/>
  <path class="cls-1" d="M5068.84,3268.18c-4.26-5.34-3.91-13.14,1.03-18.1,5.32-5.3,13.94-5.3,19.27,0,.77.78,1.41,1.6,1.94,2.47,62.37,88.76,124.79,177.47,203.16,237.72,38.09,29.27,80.2,52.05,123.89,68.34,45.74,17.06,93.31,27.05,139.9,30.02,42.12,2.68,83.56-.41,122.35-7.22,45.19-7.92,86.62-20.85,121.35-35.55,64.6-27.37,106.89-61.43,149.17-95.48,5.84-4.7,14.38-3.77,19.08,2.07,4.7,5.84,3.77,14.4-2.07,19.1-43.72,35.2-87.44,70.42-155.65,99.33-36.62,15.51-80.08,29.1-127.2,37.36-40.68,7.13-84.26,10.36-128.74,7.54-49.12-3.13-99.31-13.69-147.67-31.72-46.19-17.23-90.71-41.32-131-72.29-81.7-62.8-145.3-153.14-208.81-243.57h0ZM5068.84,3268.18"/>
  <path class="cls-2" d="M5643.42,2098.85c18.87-7.13,62.81-12.69,101.78-14.55,38.97-1.86,73.01,0,112.91,13.3,39.92,13.29,85.69,38.05,114.77,57.22,29.09,19.19,41.45,32.79,42.38,41.76.94,8.97-9.58,13.31-53.21,4.65-43.61-8.67-120.33-30.32-180.04-45.48-59.7-15.16-102.39-23.81-126.82-32.48-24.44-8.67-30.63-17.32-11.76-24.42h0ZM5643.42,2098.85"/>
  <path class="cls-2" d="M5849.44,2243.93c39.46,0,71.47,32,71.47,71.45s-32.01,71.46-71.47,71.46-71.44-32-71.44-71.46,31.98-71.45,71.44-71.45h0ZM5849.44,2243.93"/>
  <path class="cls-1" d="M5432.19,2369.55c.32-7.48,6.66-13.31,14.16-12.97,7.48.32,13.3,6.66,12.97,14.16l-.02.44c-5.52,107.57-11.04,215.08-5.87,274.03,2.39,27.04,6.75,42.49,13.06,50.55,4.67,5.96,11.71,7.48,20.69,7.27h.09c11.82-.28,26.43-3.33,42.43-7.79,16.3-4.51,34.52-10.7,52.73-16.88,7.12-2.4,14.84,1.4,17.25,8.52,2.4,7.12-1.41,14.84-8.52,17.25-18.28,6.2-36.59,12.4-54.21,17.29-17.86,4.96-34.57,8.4-48.98,8.74l-.15.02c-17.29.41-31.46-3.31-42.73-17.7-9.59-12.26-15.94-32.24-18.81-64.91-5.29-60.32.3-169.02,5.88-277.76l.02-.24ZM5432.19,2369.55"/>
  <path class="cls-1" d="M5200.16,2841.46c-7.12-2.37-10.95-10.07-8.57-17.18,2.39-7.12,10.08-10.95,17.2-8.56,24.04,8.01,48.1,16.04,73.08,23.26,25.02,7.24,51.2,13.81,79.67,18.95,30.06,5.43,62.88,9.37,97.99,10.87,31.54,1.35,64.81.78,99.46-2.37,73.83-6.69,155.05-25.17,236.26-43.61l.4-.1c7.34-1.52,14.55,3.2,16.07,10.54,1.52,7.34-3.19,14.55-10.54,16.07l-.2.04c-81.9,18.6-163.83,37.23-239.55,44.09-36.06,3.27-70.53,3.88-103.04,2.48-36.31-1.57-70.39-5.64-101.65-11.3-29.68-5.37-56.73-12.12-82.43-19.57-25.72-7.44-49.95-15.53-74.15-23.6h0ZM5200.16,2841.46"/>
  <path class="cls-1" d="M5421.77,3003.53c-7.43-.95-12.71-7.74-11.77-15.18.95-7.42,7.74-12.7,15.18-11.75,14.22,1.81,28.45,3.63,42.81,5.14,13.79,1.45,27.02,2.51,39.04,2.8,11.77.29,22.92-.17,33.73-1,10.87-.84,21.21-2.06,31.52-3.27,7.46-.85,14.2,4.51,15.06,11.96.87,7.47-4.5,14.2-11.97,15.06-10.69,1.26-21.41,2.54-32.59,3.39-11.19.85-23.11,1.32-36.41,1-13.01-.32-26.88-1.43-41.15-2.92-13.73-1.43-28.6-3.35-43.45-5.23h0ZM5421.77,3003.53"/>
  <path class="cls-2" d="M5378.88,2098.85c-18.87-7.13-62.8-12.69-101.78-14.55-38.97-1.86-73,0-112.91,13.3-39.92,13.29-85.69,38.05-114.76,57.22-29.09,19.19-41.45,32.79-42.38,41.76-.93,8.97,9.58,13.31,53.21,4.65,43.61-8.67,120.33-30.32,180.04-45.48,59.7-15.16,102.39-23.81,126.82-32.48,24.43-8.67,30.63-17.32,11.75-24.42h0ZM5378.88,2098.85"/>
  <path class="cls-2" d="M5172.86,2243.93c-39.46,0-71.46,32-71.46,71.45s32,71.46,71.46,71.46,71.45-32,71.45-71.46-31.99-71.45-71.45-71.45h0ZM5172.86,2243.93"/>
  <path class="cls-1" d="M4816.44,2250.11c1.52,7.35-3.19,14.55-10.54,16.07-7.34,1.52-14.54-3.19-16.06-10.54-25.62-118.38-51.22-236.75-55.37-324.56-2.1-44.69,1.32-81.39,8.71-112.51,7.5-31.52,19.04-57.45,33-80.25,26.19-42.75,60.7-74.05,79.83-91.39l2.74-2.48c7.07-6.48,10.59-9.79,11.42-12.58,1.09-3.54.48-10.65-.72-24.39l-.02-.24c-2.81-32.12-8.32-94.98,23.48-162.02,15.19-32.03,38.84-64.65,66.8-94.95,29.98-32.5,65.1-62.5,100.16-86.36l.84-.53c33.56-22.75,67.15-39.95,97.12-50.5,31.91-11.25,60.42-15.14,81.48-10.51,45.5,10.04,54.23,54.84,58.57,77.23l.02.09c.5,2.54,1.12,2.27,64.4-26.12l.9-.41c80.17-35.98,239.33-107.37,381.7-144.32,71.91-18.64,139.53-28.54,203.42-29.71,64.18-1.16,124.49,6.44,181.43,22.75,55.7,15.95,108.33,40.3,154.22,69.51,48.08,30.61,88.8,66.66,117.92,104.05,27.25,35.01,44.47,71.27,53.66,107.16,10.31,40.27,10.54,79.97,3.63,116.91-6.49,34.79-19.25,66.94-32.75,94.08l-.36.67c-13.29,26.63-27.16,48.25-36.44,62.7q-14.93,23.28-6.04,51.34l.29,1.06c5.52,17.41,13.64,43.12,20.13,73.33,6.72,31.28,11.86,67.77,11.02,105.83-.84,38-7.62,77.14-16.85,114.4-9.12,36.86-20.73,72.08-31.29,102.49-10.46,30.12-19.98,55.59-28.97,78.71-9,23.13-17.46,43.77-25.9,64.34-2.86,6.93-10.8,10.25-17.73,7.39-6.93-2.84-10.23-10.78-7.39-17.72,8.43-20.53,16.85-41.09,25.7-63.8,8.85-22.75,18.23-47.92,28.63-77.88,10.31-29.62,21.62-63.97,30.55-100.03,8.84-35.66,15.33-72.87,16.1-108.44.77-35.49-4.09-69.93-10.49-99.66-6.34-29.52-14.1-54.1-19.39-70.77l-.38-1.07q-12.73-40.13,9.13-74.22c8.97-13.97,22.38-34.9,34.99-60.14l.3-.67c12.61-25.34,24.5-55.17,30.43-86.95,6.22-33.32,6.04-69.05-3.22-105.2-8.3-32.39-23.93-65.25-48.77-97.15-27.3-35.05-65.65-68.95-111.1-97.89-43.61-27.76-93.81-50.96-147.1-66.22-54.5-15.6-112.21-22.89-173.55-21.77-61.66,1.12-127.16,10.73-197.03,28.86-140.12,36.38-297.88,107.11-377.37,142.79l-.87.43c-94.35,42.33-95.21,42.7-102.1,7.36l-.35-1.86c-3.29-16.83-10.01-48.89-37.56-54.98-15.96-3.53-39.31.04-66.57,9.65-28,9.86-59.47,25.99-90.98,47.34l-.7.52c-33.45,22.77-66.93,51.37-95.48,82.3-26.25,28.44-48.28,58.76-62.23,88.15-28.62,60.29-23.52,118.37-20.94,148.05l.03.27c1.49,17.09,2.23,25.97-.46,34.71-2.92,9.54-8.36,14.89-19.12,24.68l-2.83,2.51c-18.04,16.35-50.59,45.86-74.83,85.43-12.53,20.47-22.92,43.83-29.7,72.35-6.86,28.91-10.04,63.12-8.06,104.99,4.02,85.23,29.41,202.64,54.79,320.03l.03.26ZM4816.44,2250.11"/>
  <path class="cls-1" d="M6218.1,2394.07c3.35,6.69.62,14.86-6.07,18.2-6.69,3.34-14.84.62-18.19-6.07l-.07-.14c-33.45-66.92-66.89-133.88-89.73-218.06-22.76-83.85-34.76-184.15-40.75-234.3q-4.1-34.34-35.04-26.32l-.31.06c-46.76,12.11-140,36.13-290.5,29.58-71.42-3.1-155.73-13.14-239.36-26.82-92.1-15.09-183.45-34.59-256-54.24-69.51-18.79-122.25-37.85-162.07-54.61-39.98-16.82-66.62-31.16-84.36-40.72q-13.26-7.13-11.38,17.34c1.88,24.42,4.7,61.13,6.08,103.88,1.37,42.15,1.22,89.25-2.91,133.74-4.12,44.69-12.25,86.56-22.09,124.24-9.93,37.91-21.49,71.45-32.51,99.36-22.12,56-42.33,90.36-62.54,124.68-3.78,6.46-12.11,8.64-18.57,4.85-6.45-3.79-8.62-12.1-4.84-18.57,19.52-33.17,39.07-66.38,60.61-120.97,10.81-27.37,22.08-59.93,31.55-96.16,9.54-36.48,17.4-76.9,21.37-119.87,4-43.14,4.12-89.14,2.78-130.44-1.31-40.72-4.18-77.92-6.08-102.7q-5.7-74.03,51.38-43.29c17.41,9.38,43.57,23.46,82.04,39.64,38.64,16.26,90.1,34.82,158.55,53.34,72,19.48,162.39,38.79,253.34,53.69,82.71,13.54,165.9,23.47,236.17,26.52,145.59,6.34,235.97-16.68,281.67-28.5l2.31-.61c59.66-15.43,59.98-15.08,67.62,48.97l.16,1.46c5.95,49.65,17.76,147.97,39.93,229.66,22.16,81.63,54.99,147.37,87.77,213.07l.02.12ZM6218.1,2394.07"/>
  <path class="cls-1" d="M5456.68,3241.65c.55-7.5,7.09-13.11,14.58-12.56,7.48.56,13.11,7.1,12.56,14.58l-4.92,63.87c-.55,7.5-7.09,13.11-14.58,12.56-7.48-.56-13.11-7.1-12.55-14.58l4.91-63.87ZM5456.68,3241.65"/>
  <path class="cls-1" d="M5365.19,3230.9c3.8-6.46,12.12-8.64,18.57-4.85,6.46,3.78,8.64,12.1,4.85,18.57l-24.57,41.75c-3.79,6.46-12.1,8.64-18.57,4.84-6.46-3.79-8.64-12.1-4.85-18.55l24.57-41.76ZM5365.19,3230.9"/>
  <path class="cls-1" d="M5557.54,3235.96c-4.44-6.05-3.13-14.57,2.92-18.99,6.05-4.44,14.57-3.13,19.01,2.92l27.02,36.84c4.43,6.06,3.12,14.57-2.94,18.99-6.03,4.44-14.57,3.12-18.99-2.92l-27.02-36.84ZM5557.54,3235.96"/>
  <path class="cls-1" d="M5711.66,3163.76c-3.93-6.4-1.89-14.77,4.52-18.68,6.4-3.91,14.77-1.89,18.67,4.52l27.02,44.22c3.91,6.4,1.88,14.77-4.52,18.67-6.4,3.92-14.78,1.89-18.69-4.52l-27-44.22ZM5711.66,3163.76"/>
  <path class="cls-1" d="M5307.18,3114.96c6.75-3.22,14.85-.36,18.1,6.39,3.22,6.77.36,14.88-6.39,18.1l-56.49,27.02c-6.77,3.24-14.88.38-18.1-6.39-3.24-6.75-.38-14.85,6.39-18.09l56.49-27.02ZM5307.18,3114.96"/>
  <path class="cls-1" d="M5161.32,3068.7c3.8-6.46,12.16-8.59,18.61-4.79,6.46,3.82,8.6,12.16,4.79,18.63l-.64,1.05c-4.91,8.19-9.77,16.3-12.91,22.01.48,1.39.73,2.86.73,4.41,0,6.25-4.21,11.51-9.94,13.12-3.1,1-6.28,1.88-10.73.33l-1.25-.47c-8.11-3.49-12.03-9.87-6.68-22.41,2.74-6.39,10.08-18.63,17.5-31.01l.51-.88ZM5161.32,3068.7"/>
  <path class="cls-1" d="M5851.93,3129.81c-4.15-6.27-2.43-14.71,3.83-18.84,6.25-4.15,14.69-2.43,18.82,3.83l14.73,22.11c4.15,6.25,2.43,14.69-3.82,18.84-6.27,4.14-14.7,2.42-18.84-3.83l-14.73-22.11ZM5851.93,3129.81"/>
  <path class="cls-1" d="M5228.91,3233.5c2.36-7.12,10.02-10.96,17.14-8.62,7.12,2.34,10.96,10.02,8.62,17.14l-12.28,36.83c-2.34,7.11-10.02,10.98-17.12,8.62-7.11-2.34-10.98-10.02-8.64-17.12l12.29-36.84ZM5228.91,3233.5"/>
  <path class="cls-1" d="M5145.81,3177.34c6.22-4.17,14.66-2.5,18.83,3.73,4.16,6.24,2.51,14.67-3.73,18.84l-29.47,19.65c-6.22,4.17-14.66,2.5-18.83-3.72-4.16-6.23-2.51-14.66,3.73-18.83l29.47-19.66ZM5145.81,3177.34"/>
  <path class="cls-1" d="M5007.42,3013.45c4.48-5.99,13-7.21,18.99-2.72,5.99,4.5,7.21,13.02,2.72,19.01l-14.75,19.65c-4.49,5.99-13,7.21-19,2.72-5.99-4.48-7.21-13.02-2.72-19.01l14.75-19.65ZM5007.42,3013.45"/>
  <path class="cls-1" d="M5434.52,3117.38c0-7.51,6.1-13.62,13.63-13.62s13.62,6.11,13.62,13.62v31.93c0,7.53-6.11,13.64-13.62,13.64s-13.63-6.11-13.63-13.64v-31.93ZM5434.52,3117.38"/>
  <path class="cls-1" d="M5590,3124.1c-2.34-7.12,1.5-14.8,8.62-17.14,7.12-2.36,14.78,1.5,17.14,8.62l9.82,29.48c2.35,7.1-1.5,14.78-8.62,17.12-7.1,2.36-14.78-1.51-17.14-8.62l-9.82-29.47ZM5590,3124.1"/>
  <path class="cls-1" d="M5545.04,3333.54c0-7.51,6.11-13.62,13.63-13.62s13.62,6.11,13.62,13.62v41.77c0,7.51-6.1,13.63-13.62,13.63s-13.63-6.11-13.63-13.63v-41.77ZM5545.04,3333.54"/>
  <path class="cls-1" d="M5358.41,3335.32c.38-7.5,6.77-13.26,14.26-12.88,7.48.38,13.26,6.77,12.88,14.27l-2.47,46.67c-.36,7.48-6.77,13.25-14.25,12.88-7.5-.38-13.26-6.78-12.88-14.26l2.45-46.67ZM5358.41,3335.32"/>
  <path class="cls-1" d="M5685.53,3305.1c-4.64-5.9-3.61-14.46,2.29-19.1,5.9-4.64,14.46-3.61,19.1,2.3l27.02,34.38c4.64,5.9,3.61,14.46-2.29,19.1-5.9,4.64-14.46,3.61-19.1-2.3l-27.02-34.38ZM5685.53,3305.1"/>
  <path class="cls-1" d="M5949.16,3060.39c-5.14-5.47-4.88-14.07.59-19.22,5.46-5.14,14.06-4.88,19.2.59l36.85,39.29c5.14,5.46,4.88,14.07-.58,19.21-5.46,5.14-14.07,4.88-19.21-.58l-36.86-39.29ZM5949.16,3060.39"/>
  <path class="cls-1" d="M5761.58,3039.42c-1.7-7.32,2.86-14.65,10.16-16.35,7.32-1.7,14.65,2.86,16.35,10.16l9.82,41.77c1.7,7.32-2.84,14.63-10.16,16.33-7.31,1.7-14.63-2.84-16.33-10.16l-9.84-41.76ZM5761.58,3039.42"/>
  <path class="cls-1" d="M5116.6,3758.73c11,22.84,27.81,48.4,49.85,73.75,19.74,22.69,43.69,45.22,71.41,65.46,30.08,21.98,64.67,41.29,103.37,56.95,36.95,14.95,77.61,26.57,121.56,33.99,44.98,7.59,93.38,10.81,140.71,4.35,46.73-6.39,92.59-22.26,133.19-52.83,68.12-51.26,123.12-144.81,161.14-209.45,8.62-14.67,16.44-27.98,22.44-37.6,40.78-65.36,56.05-63.03,84.49-58.66l3.74.56c12.44,1.81,27.1,3.24,41.57,4.65,16.12,1.55,32.05,3.1,44.17,5.02,15.8,2.49,26.43,5.84,32.32,18.19l.58,1.41c4.06,9.91,3.03,23.87-3.31,46.56-6.66,23.89-19.47,59.61-38.26,98.98l-.52.97c-14.25,29.71-31.92,61.6-52.97,92.26-24.12,35.12-52.75,68.84-83.94,99.94-32.79,32.68-68.42,62.48-104.64,88.09-35.48,25.07-71.68,46.24-110.98,62.41-39.37,16.21-81.67,27.34-129.16,32.27-47.61,4.94-100.47,3.67-154.42-3.6-52.86-7.13-106.95-20.04-158.38-38.49-52.22-18.72-101.66-43.17-147-72.71-44.93-29.27-86.01-63.67-121.97-102.57-30.89-33.36-57.95-70.15-80.44-105.33-29.87-46.68-51.57-90.37-63.35-119.42-11.75-29.03-14.35-46.29-7.82-59.03,7.1-13.85,21.49-18.43,43.96-23.08,22.03-4.56,53.71-9.72,83.01-10.58,21.97-.64,42.88,1.16,58.23,7.34,27.97,11.3,35.89,33.38,46.4,62.79,4.14,11.57,8.76,24.47,15.01,37.44h0ZM5145.9,3850.25c-23.68-27.24-41.84-54.88-53.78-79.71-7.2-15.02-11.94-28.24-16.16-40.1-8.18-22.87-14.32-40.04-30.87-46.71-11.56-4.65-28.74-5.98-47.37-5.43-27.37.81-57.36,5.7-78.34,10.05-14.45,2.98-23.35,5.25-25.21,8.86-2.38,4.68.39,15.46,8.88,36.42,11.38,28.07,32.31,70.21,60.99,115.07,21.61,33.77,47.69,69.21,77.54,101.49,34.26,37.15,73.61,70.07,116.8,98.2,43.67,28.45,91.21,51.96,141.36,69.95,49.53,17.76,101.73,30.22,152.84,37.11,51.87,6.98,102.54,8.23,148.04,3.51,44.77-4.65,84.59-15.12,121.6-30.37,37.12-15.27,71.64-35.48,105.67-59.53,35.05-24.79,69.48-53.59,101.11-85.1,29.97-29.88,57.48-62.27,80.64-96.01,20.33-29.62,37.32-60.23,50.94-88.64l.43-.98c18.18-38.09,30.4-72.05,36.66-94.51,4.52-16.19,5.9-24.75,4.58-28.53l-.26-.5c-.53-1.12-4.93-1.99-11.87-3.09-11.21-1.77-26.83-3.29-42.58-4.81-15.53-1.51-31.24-3.04-42.99-4.75l-3.8-.56c-16.99-2.6-26.09-4-57.34,46.1-7.27,11.62-14.34,23.66-22.15,36.95-39.14,66.59-95.79,162.91-168.28,217.45-44.69,33.64-94.85,51.08-145.84,58.04-50.38,6.88-101.48,3.53-148.79-4.47-46.06-7.77-88.63-19.92-127.31-35.57-40.74-16.5-77.29-36.92-109.23-60.25-29.38-21.46-54.84-45.42-75.88-69.61h0ZM5145.9,3850.25"/>
  <path class="cls-4" d="M5331.01,3980.11c-40.74-16.5-77.29-36.92-109.23-60.25-29.38-21.46-54.84-45.42-75.88-69.61-23.68-27.24-41.84-54.88-53.78-79.73-7.2-15.01-11.94-28.22-16.16-40.08-8.18-22.87-14.32-40.04-30.87-46.71-11.56-4.65-28.74-5.98-47.37-5.43-27.37.81-57.36,5.7-78.34,10.05-14.45,2.98-23.35,5.25-25.21,8.86-1.82,3.6-.63,10.8,3.89,23.46.34.72.61,1.46.82,2.25,1.2,3.22,2.58,6.78,4.16,10.7,11.38,28.07,32.31,70.21,60.99,115.07,21.61,33.77,47.69,69.21,77.54,101.49,34.26,37.15,73.61,70.07,116.8,98.2,43.67,28.44,91.21,51.96,141.36,69.95,49.53,17.78,101.73,30.22,152.84,37.11,51.87,6.98,102.54,8.23,148.04,3.51,44.77-4.65,84.59-15.12,121.6-30.37,37.12-15.27,71.64-35.48,105.67-59.53,35.05-24.79,69.48-53.59,101.11-85.1,29.97-29.88,57.48-62.27,80.64-96.01,20.33-29.62,37.32-60.23,50.94-88.64l.43-.98c18.18-38.09,30.4-72.05,36.66-94.51,1.08-3.86,1.98-7.3,2.71-10.32.12-.94.34-1.86.63-2.72,1.79-8.03,2.16-12.89,1.25-15.48l-.26-.5c-.53-1.12-4.93-1.99-11.87-3.09-11.21-1.77-26.83-3.29-42.58-4.81-15.53-1.51-31.24-3.04-42.99-4.75l-3.8-.56c-16.99-2.6-26.09-4-57.34,46.1-7.27,11.62-14.34,23.68-22.15,36.95-39.14,66.59-95.79,162.92-168.28,217.45-44.69,33.64-94.85,51.08-145.84,58.04-50.38,6.88-101.48,3.53-148.79-4.47-46.06-7.77-88.63-19.92-127.31-35.57h0ZM5331.01,3980.11"/>
  <path class="cls-3" d="M5331.01,3980.11c-40.74-16.5-77.29-36.92-109.23-60.25-29.38-21.46-54.84-45.42-75.88-69.61-23.68-27.24-41.84-54.88-53.78-79.73-7.2-15.01-11.94-28.22-16.16-40.08-8.18-22.87-14.32-40.04-30.87-46.71-11.56-4.65-28.74-5.98-47.37-5.43-27.37.81-57.36,5.7-78.34,10.05-14.45,2.98-23.35,5.25-25.21,8.86-1.82,3.6-.63,10.8,3.89,23.46.34.72.61,1.46.82,2.25,1.2,3.22,2.58,6.78,4.16,10.7,11.38,28.07,32.31,70.21,60.99,115.07,21.61,33.77,47.69,69.21,77.54,101.49,34.26,37.15,73.61,70.07,116.8,98.2,43.67,28.44,91.21,51.96,141.36,69.95,49.53,17.78,101.73,30.22,152.84,37.11,51.87,6.98,102.54,8.23,148.04,3.51,44.77-4.65,84.59-15.12,121.6-30.37,37.12-15.27,71.64-35.48,105.67-59.53,35.05-24.79,69.48-53.59,101.11-85.1,29.97-29.88,57.48-62.27,80.64-96.01,20.33-29.62,37.32-60.23,50.94-88.64l.43-.98c18.18-38.09,30.4-72.05,36.66-94.51,1.08-3.86,1.98-7.3,2.71-10.32.12-.94.34-1.86.63-2.72,1.79-8.03,2.16-12.89,1.25-15.48l-.26-.5c-.53-1.12-4.93-1.99-11.87-3.09-11.21-1.77-26.83-3.29-42.58-4.81-15.53-1.51-31.24-3.04-42.99-4.75l-3.8-.56c-16.99-2.6-26.09-4-57.34,46.1-7.27,11.62-14.34,23.68-22.15,36.95-39.14,66.59-95.79,162.92-168.28,217.45-44.69,33.64-94.85,51.08-145.84,58.04-50.38,6.88-101.48,3.53-148.79-4.47-46.06-7.77-88.63-19.92-127.31-35.57h0ZM5331.01,3980.11"/>
</svg>